Patient4_TMGait_0pt7_02_left_45_EMG.mot
version=1
nRows=20
nColumns=33
inDegrees=no
endheader
time	1LAddLong	2LGlutMax	3LGlutMed	4LIliopsoas	5LSemiMemb	6LBicFemLong	7LRecFem	8LVastMed	9LVastLat	10LGasMed	11LTibAnt	12lTibPost	13LPeroneusLong	14LSol	15LExtDigLong	16LFlexDigLong	17RAddLong	18RGlutMax	19RGlutMed	20RIliopsoas	21RSemiMemb	22RBicFemLong	23RRecFem	24RVastMed	25RVastLat	26RGasMed	27RTibAnt	28RTibPost	29RPeroneusLong	30RSol	31RExtDigLong	32RFlexDigLong
51.907	0.014343	1.1464	0.11124	-0.002136	-0.16022	0.15915	-0.34271	-0.042114	-0.16892	-0.027618	0.067902	0.006714	-0.041351	0.074921	-0.031281	0.014343	-0.019379	-0.95154	-0.51971	-0.19836	-0.015106	0.1239	0.93048	0.048065	0.022125	0.006714	0.34058	-0.006256	-0.038757	0.17425	-0.000153	-0.027466
51.908	0.019684	0.98373	0.19867	0.012054	-0.11597	0.12436	-0.36301	-0.025787	-0.16144	-0.036469	0.066681	0.018768	-0.59113	0.14481	0.045471	0.030975	0.001831	-0.84885	-0.41107	-0.168	0.040131	0.10864	0.94116	0.042725	0.021362	0.014191	0.79361	-0.006256	0.13687	0.2179	0.001068	-0.03418
51.909	0.016632	0.76691	0.15915	-0.003204	-0.09964	0.11429	-0.42389	0.001373	-0.12116	-0.023346	0.061798	0.024567	-0.49896	0.083771	-0.015717	0.02655	0.067902	-0.79361	-0.46829	-0.19943	0.040894	-0.12833	0.92255	0.099792	0.024109	0.004272	1.1069	-0.007324	-0.034943	0.13123	0.002136	-0.039368
51.91	0.010529	0.72037	0.090637	-0.005035	-0.037231	0.095978	-0.44357	0.010071	-0.070953	-0.058594	0.000458	0.037231	0.54184	-0.057831	-0.081177	-0.004883	0.033264	-0.73349	-0.66116	-0.17639	0.016174	-0.16632	0.97504	0.062256	0.010376	0.004425	0.52628	-0.000305	-0.10941	0.10269	0.002289	-0.046082
51.911	0.005798	0.85846	0.098877	-0.005035	-0.02182	0.10193	-0.46799	0.013885	-0.0354	-0.038147	0.010223	0.037842	0.53223	-0.01358	-0.02243	-0.000305	0.067444	-0.63522	-1.2704	-0.062714	0.025482	-0.11414	0.9996	-0.02243	-0.018158	0.010223	-0.71533	0.000916	-0.040131	0.083466	0.002441	-0.04837
51.912	0.006256	1.0402	0.18188	0.000153	0.001678	0.10117	-0.56549	0.00885	0.015869	0.029449	0.040436	0.04364	-0.09964	-0.023804	-0.013428	-0.00885	0.13809	-0.47241	-0.95825	-0.072174	-0.052643	-0.089569	1.0692	-0.15671	-0.034637	0.009003	-0.29312	0.000458	-0.067596	0.06958	-0.001221	-0.048676
51.913	-0.003815	1.1877	0.224	-0.024872	0.007172	0.18936	-0.60333	0.017395	0.070496	0.069122	0.056458	0.050354	-0.70725	-0.020447	-0.049591	-0.018005	0.20981	-0.39093	-0.57999	0.03006	-0.18768	-0.056458	1.0564	-0.28076	-0.050507	0.023804	-0.17517	0.000763	-0.005646	0.10315	-0.006561	-0.043182
51.914	-0.000305	1.2688	0.31555	-0.01236	-0.036011	0.22385	-0.58258	0.018463	0.11643	0.067444	0.023193	0.054932	-0.42465	0.039673	-0.035248	-0.036774	0.16083	-0.30914	-0.69	0.12177	-0.26566	-0.019226	0.93445	-0.31876	-0.043335	0.016022	-0.1828	0.001526	0.024414	0.15442	-0.002136	-0.045776
51.915	-0.002747	1.5099	0.2594	-0.008087	-0.07843	0.16083	-0.47867	0.019836	0.13534	-0.004578	0.021362	0.058136	0.034027	0.10635	-0.026855	-0.046539	-0.002289	-0.13336	-0.59433	0.27069	-0.289	-0.027466	0.961	-0.26108	-0.036011	0.009613	-0.039063	0.000305	0.018158	0.1503	0.000153	-0.037842
51.916	-0.006714	1.6751	0.27649	0.001221	-0.1033	0.14954	-0.36911	0.031128	0.13092	0.016022	0.008392	0.063782	-0.000153	0.12711	-0.048523	-0.037231	-0.17609	0.11459	-0.34943	0.37247	-0.29343	-0.043945	0.9816	-0.21454	-0.052185	0.00824	0.09491	0.002594	0.042267	0.14008	-0.001526	-0.027008
51.917	0.001831	1.6125	0.3775	-0.004883	-0.055542	0.23911	-0.32852	0.027161	0.14145	0.050201	0.019226	0.064087	-0.37216	0.011444	-0.036621	-0.0383	-0.18448	0.36499	-0.71503	0.46692	-0.27924	-0.10086	0.95962	-0.26337	-0.037231	0.002747	0.14481	-0.001526	-0.012665	0.092163	-0.00061	-0.032043
51.918	0.011902	1.5004	0.23956	-0.010834	0.004425	0.23682	-0.26642	0.039825	0.16052	0.080414	0.03479	0.059509	-0.16144	-0.053406	-0.040894	-0.052338	-0.14587	0.60654	-0.70847	0.53162	-0.29633	-0.11765	0.97412	-0.32288	-0.029297	0.001373	0.082245	-0.000916	-0.044708	0.081329	-0.001678	-0.021515
51.919	0.014191	1.245	0.12787	-0.025482	-0.014343	0.005798	-0.25879	0.038452	0.19226	0.07782	0.031433	0.056458	0.28763	-0.055389	-0.054016	-0.048828	-0.16541	0.8783	-1.0397	0.54352	-0.27008	-0.26398	0.92148	-0.29312	-0.003662	0.002441	-0.062561	0.001068	-0.079193	0.033875	-0.001221	-0.029755
51.92	0.014954	0.94284	-0.002289	-0.007782	-0.081329	-0.19623	-0.26504	0.033112	0.19638	0.065002	0.006561	0.050354	0.52917	0.049438	-0.046844	-0.050201	-0.16174	1.2247	-0.94894	0.37338	-0.23209	-0.31479	0.87738	-0.29541	0.023804	0.000916	-0.25559	0.003052	-0.21133	0.020447	0.010986	-0.026398
51.921	0.006714	0.75729	-0.025787	-0.010986	-0.088654	-0.21957	-0.24994	0.019531	0.19882	0.081482	0.023346	0.04837	0.08667	0.083771	-0.08255	-0.050964	-0.10559	1.5823	-0.87112	0.10132	-0.16403	-0.21698	0.95184	-0.19577	0.020905	0.004272	-0.224	0.00061	-0.13458	-0.024261	-0.002747	-0.020294
51.922	0.007629	0.63095	-0.064392	-0.014038	-0.064697	0.01709	-0.2272	0.027008	0.24216	0.10559	0.038147	0.039673	-0.31448	0.040741	-0.037689	-0.046539	0.013733	1.9495	-0.63644	-0.16174	-0.14526	0.063477	0.9967	-0.24979	0.000458	0.007172	-0.090179	0.001373	-0.035858	-0.04425	0.002747	-0.021973
51.923	0.004272	0.38788	-0.12329	0.005341	-0.064545	0.29816	-0.20966	0.029297	0.26581	0.073547	0.017395	0.028381	-0.30045	-0.090027	-0.006256	-0.041046	0.13825	2.281	-0.43076	-0.28625	-0.092621	0.18585	0.97839	-0.17166	0.002136	0.012207	0.2092	-0.002136	0.005951	-0.059357	-0.000916	-0.024109
51.924	-0.001831	0.1413	-0.036926	-0.005798	-0.064392	0.56488	-0.20065	0.026245	0.20447	0.04837	0.009308	0.019379	0.14648	-0.036621	-0.003662	-0.037231	0.28854	2.4467	-0.46432	-0.26093	-0.006866	0.092468	0.99243	-0.085297	0.005493	0.005951	0.21912	0.002441	0.002441	-0.032959	-0.004883	-0.027618
51.925	-0.005493	-0.059357	-0.0177	-0.001984	-0.029297	0.48386	-0.20065	0.034637	0.24323	0.061646	0.005798	0.00885	0.022736	0.005188	-0.023804	-0.030365	0.31113	2.6224	-0.63446	-0.18356	-0.032806	0.091248	0.99152	-0.024872	0.001984	0.002594	0.21118	0.000153	0.019684	-0.052338	-0.007324	-0.020447
51.926	-0.033875	-0.29037	-0.078583	-0.001984	-0.013885	0.63034	-0.18906	0.035248	0.33447	0.066681	-0.003967	0.006561	0.1651	0.083008	0.069427	-0.039368	0.27634	2.809	-0.5365	-0.11658	-0.075836	0.17517	0.9819	0.035706	-0.018158	-0.001068	0.19531	-0.002899	0.010376	-0.068665	-0.007935	-0.023041
